<svg width="377" height="181" viewBox="0 0 377 181" fill="none" xmlns="http://www.w3.org/2000/svg">
<g mask="url(#mask0_4_4787)">
<path d="M50.5646 107.994C35.1521 114.734 15.256 110.461 7.23456 107.482L7.23456 173L370.498 173L370.498 96.2122C351.371 112.244 337.739 106.286 321.534 101.485C286.411 94.0304 269.301 112.873 244.75 116.006C220.199 119.138 202.95 113.179 186.814 99.2833C170.679 85.3878 152.526 85.8769 136.112 99.7598C119.698 113.643 107.179 108.347 95.5639 105.201C83.949 102.055 69.8303 99.5689 50.5646 107.994Z" fill="url(#paint0_linear_4_4787)"/>
</g>
<g filter="url(#filter0_d_4_4787)">
<path d="M7.23448 107.482C15.256 110.461 35.152 114.735 50.5645 107.994C69.8302 99.569 83.9489 102.055 95.5638 105.201C107.179 108.347 119.698 113.643 136.112 99.76C152.526 85.8771 170.679 85.388 186.814 99.2834C202.95 113.179 220.198 119.138 244.75 116.006C269.301 112.874 286.411 94.0305 321.534 101.485C337.739 106.286 351.371 112.244 370.498 96.2124" stroke="#FFD66B" stroke-width="3" stroke-linecap="round"/>
</g>
<defs>
<filter id="filter0_d_4_4787" x="0.73407" y="85.6016" width="376.264" height="40.7192" filterUnits="userSpaceOnUse" color-interpolation-filters="sRGB">
<feFlood flood-opacity="0" result="BackgroundImageFix"/>
<feColorMatrix in="SourceAlpha" type="matrix" values="0 0 0 0 0 0 0 0 0 0 0 0 0 0 0 0 0 0 127 0" result="hardAlpha"/>
<feOffset dy="3"/>
<feGaussianBlur stdDeviation="2.5"/>
<feColorMatrix type="matrix" values="0 0 0 0 0.125 0 0 0 0 0.0192708 0 0 0 0 0.0192708 0 0 0 0.1 0"/>
<feBlend mode="normal" in2="BackgroundImageFix" result="effect1_dropShadow_4_4787"/>
<feBlend mode="normal" in="SourceGraphic" in2="effect1_dropShadow_4_4787" result="shape"/>
</filter>
<linearGradient id="paint0_linear_4_4787" x1="168.5" y1="166.5" x2="168.5" y2="92.5" gradientUnits="userSpaceOnUse">
<stop stop-color="white" stop-opacity="0"/>
<stop offset="1" stop-color="#FFD66B" stop-opacity="0.2"/>
</linearGradient>
</defs>
</svg>
