<svg width="18" height="18" viewBox="0 0 18 18" fill="none" xmlns="http://www.w3.org/2000/svg">
<g opacity="0.4">
<path fill-rule="evenodd" clip-rule="evenodd" d="M6.57946 8.35866C6.21487 8.35866 5.9266 8.64199 5.9266 9.00033C5.9266 9.35033 6.21487 9.64199 6.57946 9.64199H11.6667V13.6253C11.6667 15.667 9.97941 17.3337 7.89365 17.3337H3.76453C1.68726 17.3337 0 15.6753 0 13.6337V4.37533C0 2.32533 1.69574 0.666992 3.77301 0.666992H7.91061C9.97941 0.666992 11.6667 2.32533 11.6667 4.36699V8.35866H6.57946ZM14.6919 6.11716L17.1252 8.54216C17.2502 8.66716 17.3169 8.8255 17.3169 9.0005C17.3169 9.16716 17.2502 9.33383 17.1252 9.4505L14.6919 11.8755C14.5669 12.0005 14.4002 12.0672 14.2419 12.0672C14.0752 12.0672 13.9085 12.0005 13.7835 11.8755C13.5335 11.6255 13.5335 11.2172 13.7835 10.9672L15.1169 9.64216H11.6669V8.35883H15.1169L13.7835 7.03383C13.5335 6.78383 13.5335 6.3755 13.7835 6.1255C14.0335 5.86716 14.4419 5.86716 14.6919 6.11716Z" fill="#030229"/>
</g>
</svg>
