<svg width="18" height="18" viewBox="0 0 18 18" fill="none" xmlns="http://www.w3.org/2000/svg">
<path d="M17.855 7.33397C17.935 7.33397 17.9999 7.39884 17.9999 7.47885V8.99995C17.9999 9.56926 17.947 10.1259 17.8456 10.6659C17.061 14.8604 13.3658 18.0302 8.93648 17.9996C3.9665 17.9654 -0.0109811 13.9497 2.27767e-05 8.97966C0.0109563 4.01855 4.03625 0 8.99994 0C11.4318 0 13.6382 0.964752 15.2582 2.53187C15.3167 2.58843 15.3182 2.68167 15.2607 2.73918L13.1087 4.89112C13.0533 4.94653 12.9638 4.94797 12.907 4.89393C11.8903 3.92612 10.5146 3.33195 8.99994 3.33195C5.87207 3.33195 3.35331 5.83281 3.33208 8.96061C3.31074 12.1089 5.8566 14.6679 8.99994 14.6679C11.5503 14.6679 13.7074 12.9831 14.4187 10.6659H9.14481C9.0648 10.6659 8.99994 10.6011 8.99994 10.521V7.47882C8.99994 7.3988 9.0648 7.33394 9.14481 7.33394H17.855V7.33397Z" fill="#2196F3"/>
<path d="M17.8551 7.33496H16.7686C16.8487 7.33496 16.9135 7.39982 16.9135 7.47984V9.00094C16.9135 9.57025 16.8606 10.1269 16.7592 10.6669C16.0107 14.6684 12.6131 17.7374 8.45624 17.9846C8.61528 17.994 8.77538 17.9995 8.93661 18.0006C13.3659 18.0312 17.0611 14.8613 17.8457 10.6669C17.9471 10.1269 18 9.57025 18 9.00094V7.4798C18 7.39982 17.9352 7.33496 17.8551 7.33496Z" fill="#1E88E5"/>
<path d="M3.85193 6.62628L1.11862 4.65136C2.65206 1.87786 5.60699 0 9.00019 0C11.432 0 13.6385 0.964752 15.2585 2.53187C15.317 2.58843 15.3185 2.68167 15.2609 2.73918L13.109 4.89112C13.0537 4.94642 12.9642 4.94814 12.9075 4.89421C11.8908 3.92623 10.515 3.33198 9.00019 3.33198C6.71743 3.33198 4.74975 4.68141 3.85193 6.62628Z" fill="#F44336"/>
<path d="M3.06284 6.0562L3.85191 6.62633C4.6714 4.85116 6.38238 3.57267 8.41053 3.36297C8.42579 3.36132 8.44044 3.35931 8.45598 3.35784C8.2775 3.34089 8.09662 3.33203 7.91367 3.33203C5.85152 3.33203 4.05434 4.41916 3.06284 6.0562Z" fill="#E53935"/>
<path d="M14.1719 2.53187C14.2304 2.58843 14.2319 2.68167 14.1744 2.73922L12.4277 4.48588C12.595 4.61314 12.7552 4.74927 12.9072 4.89397C12.964 4.948 13.0535 4.94656 13.1089 4.89116L15.2609 2.73922C15.3184 2.68167 15.3169 2.58847 15.2584 2.53187C13.6384 0.964752 11.432 0 9.00012 0C8.81763 0 8.63658 0.006082 8.45679 0.0168046C10.673 0.148816 12.6734 1.08231 14.1719 2.53187Z" fill="#E53935"/>
<path d="M15.6022 15.1167C13.9586 16.8903 11.6089 18.0004 9.00017 18.0004C5.47662 18.0004 2.42606 15.9755 0.94873 13.0256L3.73924 11.1133C4.57662 13.1969 6.61673 14.6684 9.00017 14.6684C10.4959 14.6684 11.8562 14.0889 12.8689 13.1422L15.6022 15.1167Z" fill="#4CAF50"/>
<path d="M3.73934 11.1133L2.91647 11.6771C3.87219 13.4576 5.7516 14.6683 7.91373 14.6683C8.09658 14.6683 8.27731 14.6594 8.45573 14.6425C6.30949 14.4378 4.51214 13.0363 3.73934 11.1133Z" fill="#43A047"/>
<path d="M9.00006 18.0001C11.6088 18.0001 13.9585 16.89 15.6021 15.1165L14.9326 14.6328C13.3894 16.5534 11.0744 17.8275 8.45816 17.9837C8.63746 17.9944 8.81809 18.0001 9.00006 18.0001Z" fill="#43A047"/>
<path d="M3.33214 9.00094C3.33214 9.74772 3.47663 10.4609 3.73921 11.1139L0.948663 13.0261C0.341694 11.815 0.000152588 10.4478 0.000152588 9.00094C0.000152588 7.4237 0.405783 5.94131 1.11854 4.65234L3.85185 6.62727C3.51829 7.34906 3.33214 8.15346 3.33214 9.00094Z" fill="#FFC107"/>
<path d="M2.9164 11.6772L3.73926 11.1133C3.47668 10.4604 3.33219 9.74722 3.33219 9.00043C3.33219 8.15296 3.51834 7.34855 3.8519 6.62677L3.06283 6.05664C2.55043 6.90267 2.25304 7.89544 2.2458 8.96113C2.23912 9.94388 2.48265 10.8692 2.9164 11.6772Z" fill="#FFB300"/>
</svg>
