<svg width="76" height="72" viewBox="0 0 76 72" fill="none" xmlns="http://www.w3.org/2000/svg">
<path d="M75.1133 35.882C75.1133 55.3134 58.475 71.1239 37.8767 71.1239C17.2784 71.1239 0.64 55.3134 0.64 35.882C0.64 16.4505 17.2784 0.64 37.8767 0.64C58.475 0.64 75.1133 16.4505 75.1133 35.882Z" stroke="#C33E51" stroke-width="1.28"/>
<path fill-rule="evenodd" clip-rule="evenodd" d="M44.3555 47.2131L37.3782 43.0328L30.4009 47.2131C29.4376 47.2131 28.6566 46.4645 28.6566 45.541V28.8197C28.6566 27.8962 29.4376 27.1475 30.4009 27.1475H44.3555C45.3189 27.1475 46.0998 27.8962 46.0998 28.8197V45.541C46.0998 46.4645 45.3189 47.2131 44.3555 47.2131ZM44.3555 28.8197H30.4009V45.541L37.3782 41.3607L44.3555 45.541V28.8197Z" fill="white"/>
</svg>
