<svg width="15" height="15" viewBox="0 0 15 15" fill="none" xmlns="http://www.w3.org/2000/svg">
<path fill-rule="evenodd" clip-rule="evenodd" d="M14.9435 5.59307C14.8147 5.20768 14.4823 4.92587 14.0811 4.86183L10.175 4.26308L8.48132 0.626237C8.30399 0.244321 7.92118 0 7.50012 0C7.07905 0 6.69624 0.244321 6.51891 0.626237L4.82524 4.26183L0.91918 4.86058C0.517434 4.92493 0.184792 5.20733 0.0560903 5.59332C-0.0726115 5.97931 0.0239792 6.40485 0.306709 6.69744L3.16907 9.64492L2.5066 13.7343C2.43635 14.145 2.60797 14.5597 2.94796 14.8006C3.28796 15.0415 3.73603 15.0661 4.10028 14.8636L7.50012 12.9724L10.9 14.8636C11.0611 14.9516 11.2414 14.9984 11.4249 14.9999C11.744 14.9993 12.0466 14.8585 12.2525 14.6147C12.4583 14.3709 12.5465 14.0489 12.4936 13.7343L11.8312 9.64492L14.6935 6.69744C14.9764 6.4048 15.0728 5.97901 14.9435 5.59307ZM10.9625 8.85305C10.7254 9.09324 10.6184 9.43284 10.675 9.76554L11.3187 13.7549L8.01259 11.9112C7.69399 11.7337 7.30624 11.7337 6.98764 11.9112L3.68155 13.7549L4.32527 9.76554C4.38183 9.43284 4.27484 9.09324 4.03778 8.85305L1.25666 5.97807L5.05648 5.39308C5.40387 5.33724 5.70108 5.11303 5.85019 4.79433L7.50012 1.24811L9.15004 4.79496C9.29931 5.11341 9.59649 5.33736 9.94375 5.39308L13.7436 5.9787L10.9625 8.85305Z" fill="#22BB33"/>
</svg>
