<svg width="20" height="20" viewBox="0 0 20 20" fill="none" xmlns="http://www.w3.org/2000/svg">
<path fill-rule="evenodd" clip-rule="evenodd" d="M0 8C0 3.58172 3.58172 0 8 0C12.4183 0 16 3.58172 16 8C16.0359 9.78381 15.4329 11.5217 14.3 12.9L19.6 18.2C19.9382 18.5749 19.9438 19.1432 19.6131 19.5247C19.2824 19.9063 18.7192 19.9815 18.3 19.7L18.2 19.6L12.9 14.3C11.5053 15.4034 9.77837 16.0025 8 16C3.58172 16 0 12.4183 0 8ZM2 8C2 11.3137 4.68629 14 8 14C9.5913 14 11.1174 13.3679 12.2426 12.2426C13.3679 11.1174 14 9.5913 14 8C14 4.68629 11.3137 2 8 2C4.68629 2 2 4.68629 2 8Z" fill="white"></path>
</svg>
