<svg width="114" height="16" viewBox="0 0 114 16" fill="none" xmlns="http://www.w3.org/2000/svg">
<path d="M12.7148 13.2422C12.1875 13.8281 11.416 14.3001 10.4004 14.6582C9.38477 15.0163 8.27148 15.1953 7.06055 15.1953C5.19857 15.1953 3.71094 14.6257 2.59766 13.4863C1.48438 12.347 0.888672 10.7617 0.810547 8.73047L0.800781 7.5C0.800781 6.10026 1.04818 4.87956 1.54297 3.83789C2.03776 2.78971 2.74414 1.98568 3.66211 1.42578C4.58659 0.859375 5.6543 0.576172 6.86523 0.576172C8.63607 0.576172 10.0098 0.983073 10.9863 1.79688C11.9694 2.60417 12.5423 3.81185 12.7051 5.41992H9.4043C9.28711 4.62565 9.0332 4.05924 8.64258 3.7207C8.25195 3.38216 7.69857 3.21289 6.98242 3.21289C6.12305 3.21289 5.45898 3.57747 4.99023 4.30664C4.52148 5.03581 4.28385 6.07747 4.27734 7.43164V8.29102C4.27734 9.71029 4.51823 10.778 5 11.4941C5.48828 12.2038 6.25326 12.5586 7.29492 12.5586C8.18685 12.5586 8.85091 12.36 9.28711 11.9629V9.75586H6.9043V7.40234H12.7148V13.2422ZM20.5078 15C20.3906 14.7852 20.2865 14.4694 20.1953 14.0527C19.5898 14.8145 18.7435 15.1953 17.6562 15.1953C16.6602 15.1953 15.8138 14.8958 15.1172 14.2969C14.4206 13.6914 14.0723 12.9329 14.0723 12.0215C14.0723 10.8757 14.4954 10.0098 15.3418 9.42383C16.1882 8.83789 17.4186 8.54492 19.0332 8.54492H20.0488V7.98828C20.0488 7.01823 19.6289 6.5332 18.7891 6.5332C18.0078 6.5332 17.6172 6.91732 17.6172 7.68555H14.3262C14.3262 6.66341 14.7591 5.83333 15.625 5.19531C16.4974 4.55729 17.6074 4.23828 18.9551 4.23828C20.3027 4.23828 21.3672 4.56706 22.1484 5.22461C22.9297 5.88216 23.3301 6.78385 23.3496 7.92969V12.6074C23.3626 13.5775 23.5124 14.3197 23.7988 14.834V15H20.5078ZM18.4473 12.8516C18.8574 12.8516 19.196 12.7637 19.4629 12.5879C19.7363 12.4121 19.9316 12.2135 20.0488 11.9922V10.3027H19.0918C17.946 10.3027 17.373 10.8171 17.373 11.8457C17.373 12.1452 17.474 12.3893 17.6758 12.5781C17.8776 12.7604 18.1348 12.8516 18.4473 12.8516ZM28.291 4.43359L28.3984 5.67383C29.1471 4.7168 30.153 4.23828 31.416 4.23828C32.7507 4.23828 33.6523 4.76888 34.1211 5.83008C34.8372 4.76888 35.8724 4.23828 37.2266 4.23828C39.3685 4.23828 40.4688 5.53385 40.5273 8.125V15H37.2266V8.33008C37.2266 7.78971 37.1354 7.39583 36.9531 7.14844C36.7708 6.90104 36.4388 6.77734 35.957 6.77734C35.306 6.77734 34.821 7.06706 34.502 7.64648L34.5117 7.7832V15H31.2109V8.34961C31.2109 7.79622 31.123 7.39583 30.9473 7.14844C30.7715 6.90104 30.4362 6.77734 29.9414 6.77734C29.3099 6.77734 28.8281 7.06706 28.4961 7.64648V15H25.2051V4.43359H28.291ZM47.5195 15.1953C45.8984 15.1953 44.5866 14.7135 43.584 13.75C42.5814 12.7799 42.0801 11.5202 42.0801 9.9707V9.69727C42.0801 8.61654 42.2786 7.66276 42.6758 6.83594C43.0794 6.00911 43.6654 5.37109 44.4336 4.92188C45.2018 4.46615 46.1133 4.23828 47.168 4.23828C48.6523 4.23828 49.8242 4.70052 50.6836 5.625C51.543 6.54297 51.9727 7.82552 51.9727 9.47266V10.752H45.4297C45.5469 11.3444 45.804 11.8099 46.2012 12.1484C46.5983 12.487 47.1126 12.6562 47.7441 12.6562C48.7858 12.6562 49.5996 12.2917 50.1855 11.5625L51.6895 13.3398C51.2793 13.9062 50.6966 14.3587 49.9414 14.6973C49.1927 15.0293 48.3854 15.1953 47.5195 15.1953ZM47.1484 6.77734C46.1849 6.77734 45.612 7.41536 45.4297 8.69141H48.75V8.4375C48.763 7.91016 48.6296 7.50326 48.3496 7.2168C48.0697 6.92383 47.6693 6.77734 47.1484 6.77734ZM58.8379 12.0312C58.8379 11.7513 58.6914 11.5267 58.3984 11.3574C58.1055 11.1882 57.5488 11.0124 56.7285 10.8301C55.9082 10.6478 55.2311 10.4102 54.6973 10.1172C54.1634 9.81771 53.7565 9.45638 53.4766 9.0332C53.1966 8.61003 53.0566 8.125 53.0566 7.57812C53.0566 6.60807 53.457 5.81055 54.2578 5.18555C55.0586 4.55404 56.1068 4.23828 57.4023 4.23828C58.7956 4.23828 59.9154 4.55404 60.7617 5.18555C61.6081 5.81706 62.0312 6.64714 62.0312 7.67578H58.7305C58.7305 6.82943 58.2845 6.40625 57.3926 6.40625C57.0475 6.40625 56.7578 6.50391 56.5234 6.69922C56.2891 6.88802 56.1719 7.12565 56.1719 7.41211C56.1719 7.70508 56.3151 7.94271 56.6016 8.125C56.888 8.30729 57.3438 8.45703 57.9688 8.57422C58.6003 8.69141 59.1536 8.83138 59.6289 8.99414C61.2174 9.54102 62.0117 10.5208 62.0117 11.9336C62.0117 12.8971 61.582 13.6816 60.7227 14.2871C59.8698 14.8926 58.763 15.1953 57.4023 15.1953C56.4974 15.1953 55.6901 15.0326 54.9805 14.707C54.2708 14.3815 53.7174 13.9388 53.3203 13.3789C52.9232 12.819 52.7246 12.2298 52.7246 11.6113H55.8008C55.8138 12.0996 55.9766 12.4577 56.2891 12.6855C56.6016 12.9069 57.002 13.0176 57.4902 13.0176C57.9395 13.0176 58.2747 12.9264 58.4961 12.7441C58.724 12.5618 58.8379 12.3242 58.8379 12.0312ZM68.2129 0.78125L71.3867 10.6738L74.5508 0.78125H79.0625V15H75.625V11.6797L75.957 4.88281L72.5195 15H70.2539L66.8066 4.87305L67.1387 11.6797V15H63.7109V0.78125H68.2129ZM80.6836 9.61914C80.6836 8.56445 80.8887 7.62695 81.2988 6.80664C81.709 5.97982 82.2982 5.34505 83.0664 4.90234C83.8346 4.45964 84.7363 4.23828 85.7715 4.23828C87.3535 4.23828 88.6003 4.72982 89.5117 5.71289C90.4232 6.68945 90.8789 8.02083 90.8789 9.70703V9.82422C90.8789 11.4714 90.4199 12.7799 89.502 13.75C88.5905 14.7135 87.3535 15.1953 85.791 15.1953C84.2871 15.1953 83.0794 14.7461 82.168 13.8477C81.2565 12.9427 80.765 11.7188 80.6934 10.1758L80.6836 9.61914ZM83.9746 9.82422C83.9746 10.8008 84.1276 11.5169 84.4336 11.9727C84.7396 12.4284 85.1921 12.6562 85.791 12.6562C86.9629 12.6562 87.5618 11.7546 87.5879 9.95117V9.61914C87.5879 7.72461 86.9824 6.77734 85.7715 6.77734C84.6712 6.77734 84.0755 7.5944 83.9844 9.22852L83.9746 9.82422ZM91.9141 9.63867C91.9141 7.96549 92.2754 6.64714 92.998 5.68359C93.7207 4.72005 94.7298 4.23828 96.0254 4.23828C96.9694 4.23828 97.7637 4.60938 98.4082 5.35156V0H101.709V15H98.75L98.584 13.8672C97.9069 14.7526 97.0475 15.1953 96.0059 15.1953C94.7493 15.1953 93.7533 14.7135 93.0176 13.75C92.2819 12.7865 91.9141 11.416 91.9141 9.63867ZM95.2051 9.84375C95.2051 11.7188 95.752 12.6562 96.8457 12.6562C97.5749 12.6562 98.0957 12.3503 98.4082 11.7383V7.71484C98.1087 7.08984 97.5944 6.77734 96.8652 6.77734C95.8496 6.77734 95.2995 7.59766 95.2148 9.23828L95.2051 9.84375ZM108.691 15.1953C107.07 15.1953 105.758 14.7135 104.756 13.75C103.753 12.7799 103.252 11.5202 103.252 9.9707V9.69727C103.252 8.61654 103.451 7.66276 103.848 6.83594C104.251 6.00911 104.837 5.37109 105.605 4.92188C106.374 4.46615 107.285 4.23828 108.34 4.23828C109.824 4.23828 110.996 4.70052 111.855 5.625C112.715 6.54297 113.145 7.82552 113.145 9.47266V10.752H106.602C106.719 11.3444 106.976 11.8099 107.373 12.1484C107.77 12.487 108.285 12.6562 108.916 12.6562C109.958 12.6562 110.771 12.2917 111.357 11.5625L112.861 13.3398C112.451 13.9062 111.868 14.3587 111.113 14.6973C110.365 15.0293 109.557 15.1953 108.691 15.1953ZM108.32 6.77734C107.357 6.77734 106.784 7.41536 106.602 8.69141H109.922V8.4375C109.935 7.91016 109.801 7.50326 109.521 7.2168C109.242 6.92383 108.841 6.77734 108.32 6.77734Z" fill="url(#paint0_linear_20:139)"/>
<defs>
<linearGradient id="paint0_linear_20:139" x1="3.19727e-07" y1="8.12904" x2="114" y2="8.12904" gradientUnits="userSpaceOnUse">
<stop stop-color="#0061FD" stop-opacity="0.8"/>
<stop offset="0.895004" stop-color="#BCD6FF"/>
</linearGradient>
</defs>
</svg>
